<svg width="127" height="57" viewBox="0 0 127 57" fill="none" xmlns="http://www.w3.org/2000/svg">
<path d="M4.81263 28.6326C3.93032 28.6326 3.11484 28.4205 2.36621 27.9963C1.64432 27.5721 1.06947 27.0021 0.641684 26.2863C0.213895 25.544 0 24.7353 0 23.8605V22.747H3.24853V23.8605C3.24853 24.2847 3.39558 24.6558 3.68968 24.974C4.01053 25.2656 4.38484 25.4114 4.81263 25.4114H24.0632C24.4909 25.4114 24.8519 25.2656 25.146 24.974C25.4668 24.6558 25.6273 24.2847 25.6273 23.8605V17.4579C25.6273 17.0337 25.4668 16.6758 25.146 16.3842C24.8519 16.0926 24.4909 15.9467 24.0632 15.9467H4.81263C3.93032 15.9467 3.11484 15.7347 2.36621 15.3105C1.64432 14.8598 1.06947 14.2765 0.641684 13.5607C0.213895 12.8449 0 12.0495 0 11.1747V4.77209C0 3.89721 0.213895 3.10186 0.641684 2.38605C1.06947 1.64372 1.64432 1.06047 2.36621 0.636278C3.11484 0.212093 3.93032 0 4.81263 0H24.0632C24.9455 0 25.7476 0.212093 26.4695 0.636278C27.2181 1.06047 27.8063 1.64372 28.2341 2.38605C28.6619 3.10186 28.8758 3.89721 28.8758 4.77209V5.88558H25.6273V4.77209C25.6273 4.34791 25.4668 3.99 25.146 3.69837C24.8519 3.38023 24.4909 3.22116 24.0632 3.22116H4.81263C4.38484 3.22116 4.01053 3.38023 3.68968 3.69837C3.39558 3.99 3.24853 4.34791 3.24853 4.77209V11.1747C3.24853 11.5988 3.39558 11.9567 3.68968 12.2484C4.01053 12.54 4.38484 12.6858 4.81263 12.6858H24.0632C24.9455 12.6858 25.7476 12.9112 26.4695 13.3619C27.2181 13.786 27.8063 14.356 28.2341 15.0719C28.6619 15.7877 28.8758 16.583 28.8758 17.4579V23.8605C28.8758 24.7353 28.6619 25.544 28.2341 26.2863C27.8063 27.0021 27.2181 27.5721 26.4695 27.9963C25.7476 28.4205 24.9455 28.6326 24.0632 28.6326H4.81263Z" fill="white"/>
<path d="M33.2178 28.6326V0H36.5065V12.6858H45.8109L56.5591 0H60.73V0.0397669L48.6584 14.3163L60.7702 28.5928V28.6326H56.5591L45.8109 15.9467H36.5065V28.6326H33.2178Z" fill="white"/>
<path d="M77.4489 28.6326V17.8556L64.1741 0H67.9039L79.0932 13.9981L90.1623 0H93.9723L80.6974 17.8556V28.6326H77.4489Z" fill="white"/>
<path d="M39.0224 56.4697C38.1401 56.4697 37.3246 56.2576 36.576 55.8334C35.8541 55.4092 35.2793 54.8393 34.8515 54.1234C34.4237 53.3811 34.2098 52.5725 34.2098 51.6976V49.4309H37.4583V51.6976C37.4583 52.1218 37.6054 52.493 37.8995 52.8111C38.2203 53.1027 38.5946 53.2485 39.0224 53.2485H58.2729C58.7007 53.2485 59.0617 53.1027 59.3558 52.8111C59.6766 52.493 59.837 52.1218 59.837 51.6976V27.8372H63.0856V51.6976C63.0856 52.5725 62.8717 53.3811 62.4439 54.1234C62.0161 54.8393 61.4279 55.4092 60.6792 55.8334C59.9574 56.2576 59.1553 56.4697 58.2729 56.4697H39.0224Z" fill="white"/>
<path d="M67.6685 56.4697V27.8372H94.0177V31.0583H70.917V40.523H89.4858V43.7839H70.917V53.2485H94.0177V56.4697H67.6685Z" fill="white"/>
<path d="M109.684 56.4697V31.0583H96.8502V27.8372H125.726V31.0583H112.932V56.4697H109.684Z" fill="white"/>
</svg>
